Coordinates
version=1
nRows=17
nColumns=24
inDegrees=yes

Units are S.I. units (second, meters, Newtons, ...)
Angles are in degrees.

endheader
time	pelvis_tilt	pelvis_list	pelvis_rotation	pelvis_tx	pelvis_ty	pelvis_tz	hip_flexion_r	hip_adduction_r	hip_rotation_r	knee_angle_r	ankle_angle_r	subtalar_angle_r	mtp_angle_r	hip_flexion_l	hip_adduction_l	hip_rotation_l	knee_angle_l	ankle_angle_l	subtalar_angle_l	mtp_angle_l	lumbar_extension	lumbar_bending	lumbar_rotation
      3.36500000	     -9.44022936	     -9.41433367	      9.06237499	     -2.68794697	     -0.02068541	      0.40185476	     20.79119333	     10.92249457	     -6.21313329	    -14.00769883	     -5.08343286	     -5.19629941	      4.72239170	     18.03730777	     -8.83992129	      6.19295655	    -60.21535636	    -23.75195393	      2.11359628	     27.70083764	      7.74390211	      9.47522194	     -8.73035615
      3.37000000	     -9.32768754	     -9.30026212	      9.01796784	     -2.68186819	     -0.01990658	      0.40233210	     20.05179989	     10.98605717	     -6.00506771	    -13.69006309	     -4.85131413	     -5.21413917	      4.85223684	     18.78884831	     -8.63477769	      6.29944697	    -61.10082384	    -23.44821452	      0.13125957	     27.12493071	      7.60434460	      9.31806482	     -8.49845060
      3.37500000	     -9.24606542	     -9.13925267	      8.84399800	     -2.67583813	     -0.01913288	      0.40294910	     19.34489230	     11.04136237	     -5.61332968	    -13.41242258	     -4.64301355	     -5.26990737	      4.84555766	     19.52506214	     -8.41836982	      6.26421502	    -61.89112271	    -23.13651858	     -1.72718420	     26.48874604	      7.45748469	      9.13187213	     -8.10225358
      3.38000000	     -9.19376389	     -8.89277301	      8.64388954	     -2.66978880	     -0.01832931	      0.40361745	     18.64660686	     11.01211286	     -5.13013890	    -13.13706985	     -4.42542280	     -5.36615621	      4.79345691	     20.24178934	     -8.11733595	      6.18613527	    -62.55796508	    -22.78664989	     -3.39182982	     25.85721738	      7.33235248	      8.84513663	     -7.70098865
      3.38500000	     -9.15903645	     -8.61723802	      8.40387117	     -2.66376479	     -0.01750578	      0.40429141	     17.96130906	     10.95194661	     -4.61247779	    -12.86153036	     -4.24913147	     -5.46071621	      4.71598116	     20.94213803	     -7.79342349	      6.07426588	    -63.11612918	    -22.35881023	     -4.83981079	     25.29077719	      7.21630339	      8.53795563	     -7.26853881
      3.39000000	     -9.14294717	     -8.30613963	      8.14705679	     -2.65775493	     -0.01669582	      0.40500405	     17.29003062	     10.85191165	     -4.07521119	    -12.58574169	     -4.05603870	     -5.57519489	      4.63005277	     21.63803463	     -7.44593955	      5.93146088	    -63.57281570	    -21.86706030	     -6.05422506	     24.81559196	      7.11691992	      8.18982538	     -6.82957920
      3.39500000	     -9.13830107	     -7.99030818	      7.86024966	     -2.65174822	     -0.01586901	      0.40572039	     16.62070541	     10.74228530	     -3.52583755	    -12.28829692	     -3.91250478	     -5.66961280	      4.53330025	     22.31854028	     -7.10688430	      5.75738355	    -63.92407803	    -21.30352970	     -7.06563262	     24.39711129	      7.03130873	      7.84453443	     -6.35125932
      3.40000000	     -9.16529664	     -7.61288138	      7.56657124	     -2.64579923	     -0.01503283	      0.40642647	     15.98760035	     10.55062669	     -2.98569849	    -12.00447134	     -3.75334282	     -5.72921260	      4.45795703	     22.99889510	     -6.69915210	      5.57430624	    -64.15672011	    -20.66894593	     -7.82689734	     24.12644079	      6.96969595	      7.43730140	     -5.89866801
      3.40500000	     -9.19556808	     -7.23167899	      7.23795784	     -2.63987483	     -0.01421718	      0.40719892	     15.35494222	     10.35703077	     -2.41161717	    -11.71032105	     -3.58633517	     -5.77492267	      4.38406957	     23.66449804	     -6.32092822	      5.32969943	    -64.29610035	    -19.99696257	     -8.43429307	     23.89343506	      6.90828346	      7.02659109	     -5.42065128
      3.41000000	     -9.25844679	     -6.79730591	      6.91324245	     -2.63396019	     -0.01338324	      0.40796979	     14.75249844	     10.08749332	     -1.90261068	    -11.40512755	     -3.41238761	     -5.75974905	      4.34607024	     24.32860713	     -5.88283519	      5.08736694	    -64.30890649	    -19.29426133	     -8.82095909	     23.80130545	      6.88412270	      6.55530998	     -4.94302262
      3.41500000	     -9.32722547	     -6.34513382	      6.56294605	     -2.62810812	     -0.01255916	      0.40874925	     14.16295993	      9.79056079	     -1.37408530	    -11.10326394	     -3.23203020	     -5.70304998	      4.32755175	     24.97738239	     -5.44321195	      4.80703309	    -64.22254795	    -18.56727247	     -9.06982311	     23.76854365	      6.85946226	      6.07638063	     -4.46536799
      3.42000000	     -9.41303822	     -5.85992989	      6.22842785	     -2.62232148	     -0.01174616	      0.40950975	     13.60817968	      9.43956698	     -0.91678089	    -10.81466680	     -3.05176370	     -5.61840716	      4.33767745	     25.62342387	     -4.96130833	      4.53802569	    -64.02817084	    -17.83365296	     -9.19598418	     23.81477746	      6.84912314	      5.56147119	     -4.01984234
      3.42500000	     -9.50032320	     -5.36759205	      5.85912914	     -2.61652116	     -0.01095524	      0.41030009	     13.04866501	      9.07724822	     -0.43621721	    -10.50597105	     -2.85540186	     -5.48498104	      4.37676041	     26.24585410	     -4.50023509	      4.22201372	    -63.73956540	    -17.10565812	     -9.20068420	     23.90874674	      6.85225918	      5.04679313	     -3.54692748
      3.43000000	     -9.57631257	     -4.88541465	      5.45692931	     -2.61073724	     -0.01018923	      0.41112325	     12.47561357	      8.72300103	      0.07384911	    -10.17740481	     -2.65771385	     -5.30768908	      4.43791482	     26.83771160	     -4.07923825	      3.87107669	    -63.36397719	    -16.37160825	     -9.09214830	     24.03785092	      6.84381701	      4.55656613	     -3.04800671
      3.43500000	     -9.65539177	     -4.39153909	      5.07282803	     -2.60499041	     -0.00946299	      0.41190639	     11.92734569	      8.34076939	      0.51727374	     -9.86759895	     -2.46844864	     -5.13936427	      4.51218823	     27.41774840	     -3.63835235	      3.53701610	    -62.89940915	    -15.65699994	     -8.93862469	     24.19108496	      6.84606901	      4.05472754	     -2.58721857
      3.44000000	     -9.72398758	     -3.91033003	      4.68246875	     -2.59925569	     -0.00878753	      0.41266164	     11.37869613	      7.96294506	      0.95861119	     -9.56071543	     -2.27995960	     -4.96954462	      4.59516742	     27.97261847	     -3.22062712	      3.19702313	    -62.35658322	    -14.95721853	     -8.74647502	     24.35674411	      6.84553283	      3.57590528	     -2.13591319
      3.44500000	     -9.77783380	     -3.44604919	      4.28349583	     -2.59352623	     -0.00816920	      0.41339844	     10.82606159	      7.59695716	      1.39920985	     -9.25957705	     -2.09813212	     -4.81409635	      4.67279648	     28.49837136	     -2.83209810	      2.85234418	    -61.74190503	    -14.27707646	     -8.53406846	     24.51606430	      6.83963492	      3.12318371	     -1.69307355
